<svg id="SvgjsSvg1006" width="1174.2222222222222" height="539" xmlns="http://www.w3.org/2000/svg" version="1.1" xmlns:xlink="http://www.w3.org/1999/xlink" xmlns:svgjs="http://svgjs.com/svgjs"><defs id="SvgjsDefs1007"><pattern patternUnits="userSpaceOnUse" id="pattern_mark_0" width="300" height="300"><text x="150" y="100" fill="rgba(229,229,229,0.8)" font-size="18" transform="rotate(-45, 150, 150)" style="dominant-baseline: middle; text-anchor: middle;"></text></pattern><pattern patternUnits="userSpaceOnUse" id="pattern_mark_1" width="300" height="300"><text x="150" y="200" fill="rgba(229,229,229,0.8)" font-size="18" transform="rotate(-45, 150, 150)" style="dominant-baseline: middle; text-anchor: middle;"></text></pattern><marker id="SvgjsMarker1037" markerWidth="13" markerHeight="9" refX="9.5" refY="4.5" viewBox="0 0 13 9" orient="auto" markerUnits="userSpaceOnUse" stroke-dasharray="0,0"><path id="SvgjsPath1038" d="M0,0 L13,4.5 L0,9 L0,0" fill="#323232" stroke="#323232" stroke-width="1"></path></marker><marker id="SvgjsMarker1047" markerWidth="13" markerHeight="9" refX="9.5" refY="4.5" viewBox="0 0 13 9" orient="auto" markerUnits="userSpaceOnUse" stroke-dasharray="0,0"><path id="SvgjsPath1048" d="M0,0 L13,4.5 L0,9 L0,0" fill="#323232" stroke="#323232" stroke-width="1"></path></marker><marker id="SvgjsMarker1057" markerWidth="13" markerHeight="9" refX="9.5" refY="4.5" viewBox="0 0 13 9" orient="auto" markerUnits="userSpaceOnUse" stroke-dasharray="0,0"><path id="SvgjsPath1058" d="M0,0 L13,4.5 L0,9 L0,0" fill="#323232" stroke="#323232" stroke-width="1"></path></marker><marker id="SvgjsMarker1068" markerWidth="13" markerHeight="9" refX="9.5" refY="4.5" viewBox="0 0 13 9" orient="auto" markerUnits="userSpaceOnUse" stroke-dasharray="0,0"><path id="SvgjsPath1069" d="M0,0 L13,4.5 L0,9 L0,0" fill="#323232" stroke="#323232" stroke-width="1"></path></marker><marker id="SvgjsMarker1134" markerWidth="13" markerHeight="9" refX="9.5" refY="4.5" viewBox="0 0 13 9" orient="auto" markerUnits="userSpaceOnUse" stroke-dasharray="0,0"><path id="SvgjsPath1135" d="M0,0 L13,4.5 L0,9 L0,0" fill="#323232" stroke="#323232" stroke-width="1"></path></marker><marker id="SvgjsMarker1144" markerWidth="13" markerHeight="9" refX="9.5" refY="4.5" viewBox="0 0 13 9" orient="auto" markerUnits="userSpaceOnUse" stroke-dasharray="0,0"><path id="SvgjsPath1145" d="M0,0 L13,4.5 L0,9 L0,0" fill="#323232" stroke="#323232" stroke-width="1"></path></marker><marker id="SvgjsMarker1154" markerWidth="13" markerHeight="9" refX="9.5" refY="4.5" viewBox="0 0 13 9" orient="auto" markerUnits="userSpaceOnUse" stroke-dasharray="0,0"><path id="SvgjsPath1155" d="M0,0 L13,4.5 L0,9 L0,0" fill="#323232" stroke="#323232" stroke-width="1"></path></marker><marker id="SvgjsMarker1158" markerWidth="13" markerHeight="9" refX="9.5" refY="4.5" viewBox="0 0 13 9" orient="auto" markerUnits="userSpaceOnUse" stroke-dasharray="0,0"><path id="SvgjsPath1159" d="M0,0 L13,4.5 L0,9 L0,0" fill="#323232" stroke="#323232" stroke-width="1"></path></marker></defs><rect id="svgbackgroundid" width="1174.2222222222222" height="539" fill="transparent"></rect><rect id="SvgjsRect1009" width="1174.2222222222222" height="539" fill="url(#pattern_mark_0)"></rect><rect id="SvgjsRect1010" width="1174.2222222222222" height="539" fill="url(#pattern_mark_1)"></rect><g id="SvgjsG1011" transform="translate(160,25)"><path id="SvgjsPath1012" d="M 0 18Q 0 0 18 0L 400 0Q 418 0 418 18L 418 338Q 418 356 400 356L 18 356Q 0 356 0 338L 0 18Z" stroke="rgba(195,215,250,1)" stroke-width="1.5" fill-opacity="1" fill="#e3edff"></path><g id="SvgjsG1013"><text id="SvgjsText1014" font-family="&quot;Microsoft YaHei&quot;, 微软雅黑, Arial" text-anchor="middle" font-size="13px" width="398px" fill="#323232" font-weight="700" align="middle" lineHeight="125%" anchor="middle" family="&quot;Microsoft YaHei&quot;, 微软雅黑, Arial" size="13px" weight="700" font-style="" opacity="1" y="167.375" transform="rotate(0)"></text></g></g><g id="SvgjsG1015" transform="translate(375,39)"><path id="SvgjsPath1016" d="M 0 0L 193.22222222222223 0L 193.22222222222223 41L 0 41Z" stroke="none" fill="none"></path><g id="SvgjsG1017"><text id="SvgjsText1018" font-family="&quot;Microsoft YaHei&quot;, 微软雅黑, Arial" text-anchor="middle" font-size="20px" width="194px" fill="#323232" font-weight="700" align="middle" lineHeight="125%" anchor="middle" family="&quot;Microsoft YaHei&quot;, 微软雅黑, Arial" size="20px" weight="700" font-style="" opacity="1" y="2.5" transform="rotate(0)"><tspan id="SvgjsTspan1019" dy="25" x="97"><tspan id="SvgjsTspan1020" style="">TokenBucketLimter</tspan></tspan></text></g></g><g id="SvgjsG1021" transform="translate(264,182)"><path id="SvgjsPath1022" d="M 0 37L 61 0L 122 37L 61 74L 0 37Z" stroke="rgba(33,41,48,1)" stroke-width="1.5" fill-opacity="1" fill="#ffffff"></path><g id="SvgjsG1023"><text id="SvgjsText1024" font-family="&quot;Microsoft YaHei&quot;, 微软雅黑, Arial" text-anchor="middle" font-size="15px" width="102px" fill="#323232" font-weight="700" align="middle" lineHeight="125%" anchor="middle" family="&quot;Microsoft YaHei&quot;, 微软雅黑, Arial" size="15px" weight="700" font-style="" opacity="1" y="15.125" transform="rotate(0)"><tspan id="SvgjsTspan1025" dy="18.75" x="61"><tspan id="SvgjsTspan1026" style="">enough </tspan></tspan><tspan id="SvgjsTspan1027" dy="18.75" x="61"><tspan id="SvgjsTspan1028" style="">tokens?</tspan></tspan></text></g></g><g id="SvgjsG1029" transform="translate(447,184)"><path id="SvgjsPath1030" d="M 0 4Q 0 0 4 0L 96 0Q 100 0 100 4L 100 66Q 100 70 96 70L 4 70Q 0 70 0 66L 0 4ZM 16.666666666666668 0L 16.666666666666668 70M 83.33333333333333 0L 83.33333333333333 70" stroke="rgba(33,41,48,1)" stroke-width="1.5" fill-opacity="1" fill="#569230"></path><g id="SvgjsG1031"><text id="SvgjsText1032" font-family="&quot;Microsoft YaHei&quot;, 微软雅黑, Arial" text-anchor="middle" font-size="15px" width="67px" fill="#ffffff" font-weight="700" align="middle" lineHeight="125%" anchor="middle" family="&quot;Microsoft YaHei&quot;, 微软雅黑, Arial" size="15px" weight="700" font-style="" opacity="1" y="22.625" transform="rotate(0)"><tspan id="SvgjsTspan1033" dy="18.75" x="50.16666666666667"><tspan id="SvgjsTspan1034" style="">Continue</tspan></tspan></text></g></g><g id="SvgjsG1035"><path id="SvgjsPath1036" d="M386.75 219L416.5 219L416.5 219L444.29999999999995 219" stroke="#323232" stroke-width="1.5" fill="none" marker-end="url(#SvgjsMarker1037)"></path></g><g id="SvgjsG1039" transform="translate(275,293)"><path id="SvgjsPath1040" d="M 0 4Q 0 0 4 0L 96 0Q 100 0 100 4L 100 66Q 100 70 96 70L 4 70Q 0 70 0 66L 0 4ZM 16.666666666666668 0L 16.666666666666668 70M 83.33333333333333 0L 83.33333333333333 70" stroke="rgba(33,41,48,1)" stroke-width="1.5" fill-opacity="1" fill="#e74f4c"></path><g id="SvgjsG1041"><text id="SvgjsText1042" font-family="&quot;Microsoft YaHei&quot;, 微软雅黑, Arial" text-anchor="middle" font-size="15px" width="67px" fill="#ffffff" font-weight="700" align="middle" lineHeight="125%" anchor="middle" family="&quot;Microsoft YaHei&quot;, 微软雅黑, Arial" size="15px" weight="700" font-style="" opacity="1" y="22.625" transform="rotate(0)"><tspan id="SvgjsTspan1043" dy="18.75" x="50.16666666666667"><tspan id="SvgjsTspan1044" style="">Reject</tspan></tspan></text></g></g><g id="SvgjsG1045"><path id="SvgjsPath1046" d="M325 256.75L325 274.25L325 274.25L325 290.3" stroke="#323232" stroke-width="1.5" fill="none" marker-end="url(#SvgjsMarker1047)"></path></g><g id="SvgjsG1049" transform="translate(290,74)"><path id="SvgjsPath1050" d="M 0 9.8C 0 -2.8000000000000003 70 -2.8000000000000003 70 9.8L 70 60.20000000000001C 70 72.8 0 72.8 0 60.20000000000001L 0 9.8Z" stroke="rgba(33,41,48,1)" stroke-width="1.5" fill-opacity="1" fill="#ffffff"></path><path id="SvgjsPath1051" d="M 70 9.8C 70 21 0 21 0 9.8L 0 14C 0 25.2 70 25.2 70 14L 70 18.2C 70 29.400000000000002 0 29.400000000000002 0 18.2C 0 29.400000000000002 70 29.400000000000002 70 18.2Z" stroke="rgba(33,41,48,1)" stroke-width="1.5" fill-opacity="1" fill="#ffffff"></path><path id="SvgjsPath1052" d="M 0 7Q 35 -7 70 7L 70 63Q 35 77 0 63L 0 7Z" stroke="none" fill="none"></path><g id="SvgjsG1053"><text id="SvgjsText1054" font-family="&quot;Microsoft YaHei&quot;, 微软雅黑, Arial" text-anchor="middle" font-size="13px" width="70px" fill="#323232" font-weight="400" align="middle" lineHeight="125%" anchor="middle" family="&quot;Microsoft YaHei&quot;, 微软雅黑, Arial" size="13px" weight="400" font-style="" opacity="1" y="36.041666666666664" transform="rotate(0)"></text></g></g><g id="SvgjsG1055"><path id="SvgjsPath1056" d="M325 144.75L325 162.75L325 162.75L325 179.3" stroke="#323232" stroke-width="1.5" fill="none" marker-end="url(#SvgjsMarker1057)"></path></g><g id="SvgjsG1059" transform="translate(362,80.5)"><path id="SvgjsPath1060" d="M 0 57Q 9 57 9 51.3L 9 34.2Q 9 28.5 22 28.5Q 9 28.5 9 22.8L 9 5.7Q 9 0 0 0" stroke="rgba(33,41,48,1)" stroke-width="1.5" fill="none"></path><path id="SvgjsPath1061" d="M 0 0L 134 0L 134 57L 0 57Z" stroke="none" fill="none"></path><g id="SvgjsG1062"><text id="SvgjsText1063" font-family="&quot;Microsoft YaHei&quot;, 微软雅黑, Arial" text-anchor="start" font-size="15px" width="107px" fill="#323232" font-weight="400" align="middle" lineHeight="125%" anchor="start" family="&quot;Microsoft YaHei&quot;, 微软雅黑, Arial" size="15px" weight="400" font-style="" opacity="1" y="16.125" transform="rotate(0)"><tspan id="SvgjsTspan1064" dy="18.75" x="27"><tspan id="SvgjsTspan1065" style="font-weight: bold;">burst</tspan></tspan></text></g></g><g id="SvgjsG1066"><path id="SvgjsPath1067" d="M254 74C 267 25 325 45.599999999999994 324.1469699699522 71.43829358281701" stroke="#323232" stroke-width="1.5" fill="none" marker-end="url(#SvgjsMarker1068)"></path></g><g id="SvgjsG1070" transform="translate(182,74)"><path id="SvgjsPath1071" d="M 0 0L 100 0L 100 41L 0 41Z" stroke="none" fill="none"></path><g id="SvgjsG1072"><text id="SvgjsText1073" font-family="&quot;Microsoft YaHei&quot;, 微软雅黑, Arial" text-anchor="middle" font-size="15px" width="100px" fill="#323232" font-weight="400" align="middle" lineHeight="125%" anchor="middle" family="&quot;Microsoft YaHei&quot;, 微软雅黑, Arial" size="15px" weight="400" font-style="" opacity="1" y="8.125" transform="rotate(0)"><tspan id="SvgjsTspan1074" dy="18.75" x="50"><tspan id="SvgjsTspan1075" style="font-weight: bold;">rate(tokens/s)</tspan></tspan></text></g></g><g id="SvgjsG1076" transform="translate(360,180)"><path id="SvgjsPath1077" d="M 0 0L 100 0L 100 41L 0 41Z" stroke="none" fill="none"></path><g id="SvgjsG1078"><text id="SvgjsText1079" font-family="&quot;Microsoft YaHei&quot;, 微软雅黑, Arial" text-anchor="middle" font-size="13px" width="100px" fill="#323232" font-weight="400" align="middle" lineHeight="125%" anchor="middle" family="&quot;Microsoft YaHei&quot;, 微软雅黑, Arial" size="13px" weight="400" font-style="" opacity="1" y="9.875" transform="rotate(0)"><tspan id="SvgjsTspan1080" dy="16.25" x="50"><tspan id="SvgjsTspan1081" style="font-weight: bold;">Y</tspan></tspan></text></g></g><g id="SvgjsG1082" transform="translate(296,246)"><path id="SvgjsPath1083" d="M 0 0L 100 0L 100 41L 0 41Z" stroke="none" fill="none"></path><g id="SvgjsG1084"><text id="SvgjsText1085" font-family="&quot;Microsoft YaHei&quot;, 微软雅黑, Arial" text-anchor="middle" font-size="13px" width="100px" fill="#323232" font-weight="400" align="middle" lineHeight="125%" anchor="middle" family="&quot;Microsoft YaHei&quot;, 微软雅黑, Arial" size="13px" weight="400" font-style="" opacity="1" y="9.875" transform="rotate(0)"><tspan id="SvgjsTspan1086" dy="16.25" x="50"><tspan id="SvgjsTspan1087" style="font-weight: bold;">N</tspan></tspan></text></g></g><g id="SvgjsG1088" transform="translate(25,198.5)"><path id="SvgjsPath1089" d="M 0 13.529999999999998L 113.5 13.529999999999998L 113.5 0L 134 20.5L 113.5 41L 113.5 27.47L 0 27.47L 0 13.529999999999998Z" stroke="rgba(33,41,48,1)" stroke-width="1.5" fill-opacity="1" fill="#ffffff"></path><g id="SvgjsG1090"><text id="SvgjsText1091" font-family="&quot;Microsoft YaHei&quot;, 微软雅黑, Arial" text-anchor="middle" font-size="13px" width="134px" fill="#323232" font-weight="400" align="middle" lineHeight="125%" anchor="middle" family="&quot;Microsoft YaHei&quot;, 微软雅黑, Arial" size="13px" weight="400" font-style="" opacity="1" y="9.874999999999996" transform="rotate(0)"></text></g></g><g id="SvgjsG1092" transform="translate(26,171)"><path id="SvgjsPath1093" d="M 0 0L 100 0L 100 41L 0 41Z" stroke="none" fill="none"></path><g id="SvgjsG1094"><text id="SvgjsText1095" font-family="&quot;Microsoft YaHei&quot;, 微软雅黑, Arial" text-anchor="middle" font-size="15px" width="100px" fill="#323232" font-weight="400" align="middle" lineHeight="125%" anchor="middle" family="&quot;Microsoft YaHei&quot;, 微软雅黑, Arial" size="15px" weight="400" font-style="" opacity="1" y="8.125" transform="rotate(0)"><tspan id="SvgjsTspan1096" dy="18.75" x="50"><tspan id="SvgjsTspan1097" style="fill: rgb(232, 85, 164);font-weight: bold;">cur_req</tspan></tspan></text></g></g><g id="SvgjsG1098" transform="translate(606,184)"><path id="SvgjsPath1099" d="M 0 0L 392 0L 392 70L 0 70Z" stroke="rgba(33,41,48,1)" stroke-width="1.5" fill-opacity="1" fill="#ffffff"></path><g id="SvgjsG1100"><text id="SvgjsText1101" font-family="&quot;Microsoft YaHei&quot;, 微软雅黑, Arial" text-anchor="middle" font-size="13px" width="372px" fill="#323232" font-weight="400" align="middle" lineHeight="125%" anchor="middle" family="&quot;Microsoft YaHei&quot;, 微软雅黑, Arial" size="13px" weight="400" font-style="" opacity="1" y="24.375" transform="rotate(0)"></text></g></g><g id="SvgjsG1102" transform="translate(923,194)"><path id="SvgjsPath1103" d="M 0 0L 54 0L 54 50L 0 50Z" stroke="rgba(33,41,48,1)" stroke-width="1.5" fill-opacity="1" fill="#ffffff"></path><g id="SvgjsG1104"><text id="SvgjsText1105" font-family="&quot;Microsoft YaHei&quot;, 微软雅黑, Arial" text-anchor="middle" font-size="14px" width="34px" fill="#323232" font-weight="400" align="middle" lineHeight="125%" anchor="middle" family="&quot;Microsoft YaHei&quot;, 微软雅黑, Arial" size="14px" weight="400" font-style="" opacity="1" y="13.25" transform="rotate(0)"><tspan id="SvgjsTspan1106" dy="17.5" x="27"><tspan id="SvgjsTspan1107" style="font-weight: bold;">reqN</tspan></tspan></text></g></g><g id="SvgjsG1108" transform="translate(849,194)"><path id="SvgjsPath1109" d="M 0 0L 54 0L 54 50L 0 50Z" stroke="rgba(33,41,48,1)" stroke-width="1.5" fill-opacity="1" fill="#ffffff"></path><g id="SvgjsG1110"><text id="SvgjsText1111" font-family="&quot;Microsoft YaHei&quot;, 微软雅黑, Arial" text-anchor="middle" font-size="12px" width="34px" fill="#323232" font-weight="400" align="middle" lineHeight="125%" anchor="middle" family="&quot;Microsoft YaHei&quot;, 微软雅黑, Arial" size="12px" weight="400" font-style="" opacity="1" y="15" transform="rotate(0)"><tspan id="SvgjsTspan1112" dy="15" x="27"><tspan id="SvgjsTspan1113" style="font-weight: bold;">...</tspan></tspan></text></g></g><g id="SvgjsG1114" transform="translate(775,194)"><path id="SvgjsPath1115" d="M 0 0L 54 0L 54 50L 0 50Z" stroke="rgba(33,41,48,1)" stroke-width="1.5" fill-opacity="1" fill="#ffffff"></path><g id="SvgjsG1116"><text id="SvgjsText1117" font-family="&quot;Microsoft YaHei&quot;, 微软雅黑, Arial" text-anchor="middle" font-size="14px" width="34px" fill="#323232" font-weight="400" align="middle" lineHeight="125%" anchor="middle" family="&quot;Microsoft YaHei&quot;, 微软雅黑, Arial" size="14px" weight="400" font-style="" opacity="1" y="13.25" transform="rotate(0)"><tspan id="SvgjsTspan1118" dy="17.5" x="27"><tspan id="SvgjsTspan1119" style="font-weight: bold;">req3</tspan></tspan></text></g></g><g id="SvgjsG1120" transform="translate(701,194)"><path id="SvgjsPath1121" d="M 0 0L 54 0L 54 50L 0 50Z" stroke="rgba(33,41,48,1)" stroke-width="1.5" fill-opacity="1" fill="#ffffff"></path><g id="SvgjsG1122"><text id="SvgjsText1123" font-family="&quot;Microsoft YaHei&quot;, 微软雅黑, Arial" text-anchor="middle" font-size="14px" width="34px" fill="#323232" font-weight="400" align="middle" lineHeight="125%" anchor="middle" family="&quot;Microsoft YaHei&quot;, 微软雅黑, Arial" size="14px" weight="400" font-style="" opacity="1" y="13.25" transform="rotate(0)"><tspan id="SvgjsTspan1124" dy="17.5" x="27"><tspan id="SvgjsTspan1125" style="font-weight: bold;">req2</tspan></tspan></text></g></g><g id="SvgjsG1126" transform="translate(627,194)"><path id="SvgjsPath1127" d="M 0 0L 54 0L 54 50L 0 50Z" stroke="rgba(33,41,48,1)" stroke-width="1.5" fill-opacity="1" fill="#ffffff"></path><g id="SvgjsG1128"><text id="SvgjsText1129" font-family="&quot;Microsoft YaHei&quot;, 微软雅黑, Arial" text-anchor="middle" font-size="14px" width="34px" fill="#323232" font-weight="400" align="middle" lineHeight="125%" anchor="middle" family="&quot;Microsoft YaHei&quot;, 微软雅黑, Arial" size="14px" weight="400" font-style="" opacity="1" y="13.25" transform="rotate(0)"><tspan id="SvgjsTspan1130" dy="17.5" x="27"><tspan id="SvgjsTspan1131" style="font-weight: bold;">req1</tspan></tspan></text></g></g><g id="SvgjsG1132"><path id="SvgjsPath1133" d="M547.75 219C 570.6 219 582.4 219 603.3 219" stroke="#323232" stroke-width="1.5" fill="none" marker-end="url(#SvgjsMarker1134)"></path></g><g id="SvgjsG1136" transform="translate(1049.2222222222222,184)"><path id="SvgjsPath1137" d="M 0 4Q 0 0 4 0L 96 0Q 100 0 100 4L 100 66Q 100 70 96 70L 4 70Q 0 70 0 66L 0 4ZM 16.666666666666668 0L 16.666666666666668 70M 83.33333333333333 0L 83.33333333333333 70" stroke="rgba(0,0,0,1)" stroke-width="1.5" fill="none"></path><g id="SvgjsG1138"><text id="SvgjsText1139" font-family="&quot;Microsoft YaHei&quot;, 微软雅黑, Arial" text-anchor="middle" font-size="15px" width="67px" fill="#ffffff" font-weight="700" align="middle" lineHeight="125%" anchor="middle" family="&quot;Microsoft YaHei&quot;, 微软雅黑, Arial" size="15px" weight="700" font-style="" opacity="1" y="22.625" transform="rotate(0)"><tspan id="SvgjsTspan1140" dy="18.75" x="50.16666666666667"><tspan id="SvgjsTspan1141" style="fill: rgb(0, 0, 0);">Service</tspan></tspan></text></g></g><g id="SvgjsG1142"><path id="SvgjsPath1143" d="M998.75 219C 1018.4888888888888 219 1028.7333333333333 219 1046.5222222222221 219" stroke="#323232" stroke-width="1.5" fill="none" marker-end="url(#SvgjsMarker1144)"></path></g><g id="SvgjsG1146" transform="translate(250.94444444444446,444)"><path id="SvgjsPath1147" d="M 0 4Q 0 0 4 0L 144.1111111111111 0Q 148.1111111111111 0 148.1111111111111 4L 148.1111111111111 66Q 148.1111111111111 70 144.1111111111111 70L 4 70Q 0 70 0 66L 0 4ZM 20 0L 20 70M 128.1111111111111 0L 128.1111111111111 70" stroke="rgba(0,0,0,1)" stroke-width="1.5" fill="none"></path><g id="SvgjsG1148"><text id="SvgjsText1149" font-family="&quot;Microsoft YaHei&quot;, 微软雅黑, Arial" text-anchor="middle" font-size="15px" width="109px" fill="#ffffff" font-weight="700" align="middle" lineHeight="125%" anchor="middle" family="&quot;Microsoft YaHei&quot;, 微软雅黑, Arial" size="15px" weight="700" font-style="" opacity="1" y="22.625" transform="rotate(0)"><tspan id="SvgjsTspan1150" dy="18.75" x="74.5"><tspan id="SvgjsTspan1151" style="fill: rgb(0, 0, 0);">SendResponse</tspan></tspan></text></g></g><g id="SvgjsG1152"><path id="SvgjsPath1153" d="M1099.2222222222222 254.75L1099.2222222222222 479L401.75555555555553 479" stroke="#323232" stroke-width="1.5" fill="none" marker-end="url(#SvgjsMarker1154)"></path></g><g id="SvgjsG1156"><path id="SvgjsPath1157" d="M325 363.75L325 403.5L325 403.5L325 441.29999999999995" stroke="#323232" stroke-width="1.5" fill="none" marker-end="url(#SvgjsMarker1158)"></path></g><g id="SvgjsG1160" transform="matrix(-1,1.2246467991473532e-16,-1.2246467991473532e-16,-1,252,498.3888854980469)"><path id="SvgjsPath1161" d="M 0 13.529999999999998L 113.5 13.529999999999998L 113.5 0L 134 20.5L 113.5 41L 113.5 27.47L 0 27.47L 0 13.529999999999998Z" stroke="rgba(33,41,48,1)" stroke-width="1.5" fill-opacity="1" fill="#ffffff"></path><g id="SvgjsG1162"><text id="SvgjsText1163" font-family="&quot;Microsoft YaHei&quot;, 微软雅黑, Arial" text-anchor="middle" font-size="13px" width="134px" fill="#323232" font-weight="400" align="middle" lineHeight="125%" anchor="middle" family="&quot;Microsoft YaHei&quot;, 微软雅黑, Arial" size="13px" weight="400" font-style="" opacity="1" y="9.874999999999996" transform="rotate(0)"></text></g></g><g id="SvgjsG1164" transform="translate(143.77777777777777,432.6111111111111)"><path id="SvgjsPath1165" d="M 0 0L 100 0L 100 40L 0 40Z" stroke="none" fill="none"></path><g id="SvgjsG1166"><text id="SvgjsText1167" font-family="&quot;Microsoft YaHei&quot;, 微软雅黑, Arial" text-anchor="middle" font-size="15px" width="100px" fill="#323232" font-weight="400" align="middle" lineHeight="125%" anchor="middle" family="&quot;Microsoft YaHei&quot;, 微软雅黑, Arial" size="15px" weight="400" font-style="" opacity="1" y="7.625" transform="rotate(0)"><tspan id="SvgjsTspan1168" dy="18.75" x="50"><tspan id="SvgjsTspan1169" style="font-weight: bold;fill: rgb(0, 0, 0);">response</tspan></tspan></text></g></g><g id="SvgjsG1170" transform="translate(328,389)"><path id="SvgjsPath1171" d="M 0 0L 183 0L 183 40L 0 40Z" stroke="none" fill="none"></path><g id="SvgjsG1172"><text id="SvgjsText1173" font-family="&quot;Microsoft YaHei&quot;, 微软雅黑, Arial" text-anchor="middle" font-size="15px" width="183px" fill="#323232" font-weight="400" align="middle" lineHeight="125%" anchor="middle" family="&quot;Microsoft YaHei&quot;, 微软雅黑, Arial" size="15px" weight="400" font-style="" opacity="1" y="7.625" transform="rotate(0)"><tspan id="SvgjsTspan1174" dy="18.75" x="91.5"><tspan id="SvgjsTspan1175" style="font-weight: bold;fill: rgb(231, 79, 76);">failed responese</tspan></tspan></text></g></g><g id="SvgjsG1176" transform="translate(681,444)"><path id="SvgjsPath1177" d="M 0 0L 183 0L 183 40L 0 40Z" stroke="none" fill="none"></path><g id="SvgjsG1178"><text id="SvgjsText1179" font-family="&quot;Microsoft YaHei&quot;, 微软雅黑, Arial" text-anchor="middle" font-size="15px" width="183px" fill="#323232" font-weight="400" align="middle" lineHeight="125%" anchor="middle" family="&quot;Microsoft YaHei&quot;, 微软雅黑, Arial" size="15px" weight="400" font-style="" opacity="1" y="7.625" transform="rotate(0)"><tspan id="SvgjsTspan1180" dy="18.75" x="91.5"><tspan id="SvgjsTspan1181" style="font-weight: bold;fill: rgb(123, 209, 68);">success responese</tspan></tspan></text></g></g><g id="SvgjsG1182"></g></svg>